<svg xmlns="http://www.w3.org/2000/svg" width="32" height="32" viewBox="0 0 32 32">
  <rect width="32" height="32" fill="#0a0a0a"/>
  <svg x="3" y="1" width="26" height="30" viewBox="0 0 307 521.251">
    <path fill="#e5e5e5" fill-rule="evenodd" d="m 154.627,2.4004664 c -5.897,5.342 -26.278,68.8370006 -53.148,165.5810036 -5.703,20.532 -10.944,38.025 -11.648,38.873 -2.319,2.793 -23.968,21.601 -45.831,39.814 -27.76,23.126 -44,39.155 -44,43.429 0,7.032 10.688,2.745 58.311,-23.386 9.796,-5.375 17.949,-9.613 18.118,-9.417 0.169,0.196 -2.567,10.931 -6.08,23.856 -14.257,52.456 -24.198,93.712 -31.324,130 -5.43,27.644 -12.5,70.579 -14.189,86.164 -0.929,8.565 -1.777,12.192 -3.472,14.836 -1.233,1.925 -2.56,4.803 -2.948,6.395 -1.451,5.952 7.594,1.377 13.584,-6.871 19.61,-27.003 44.833,-59.605 61.525,-79.524 23.104,-27.571 68.745,-85.504 100.446,-127.5 11.209,-14.85 21.539,-28.432 22.955,-30.182 1.416,-1.75 4.149,-5.283 6.074,-7.851 1.925,-2.569 14.738,-18.687 28.472,-35.818 37.784,-47.129 55.528,-70.589 55.528,-73.414 0,-5.955 -9.372,-4.956 -36.789,3.922 -14.842,4.805 -57.932,21.619 -66.151,25.812 -4.871,2.485 -4.871,2.49 -0.949,-8.639 11,-31.215 34.413,-85.299003 38.237,-88.325003 26.796,-21.209 35.95,-30.802 31.15,-32.644 -3.165,-1.214 -6.776,0.998 -19.001,11.642 -9.729,8.47 -13.287,10.997 -15.482,10.997 -2.356,0 -3.168,0.696 -4.683,4.012 -1.485,3.253 -7.775,8.792 -33.214,29.250003 -35.88,28.856 -33.889,27.313 -34.446,26.703 -0.234,-0.256 -0.731,-13.29 -1.104,-28.965 -1.425,-59.769003 -2.566,-96.762003 -3.2,-103.7500036 -0.739,-8.14399997 -2.13,-9.176 -6.741,-5 m -4.093,27.8570006 c -8.025,21.809 -23.335,71.503003 -37.86,122.893003 -11.098,39.261 -11.836,42.021 -11.49,42.981 0.174,0.484 4.622,-3.027 9.884,-7.801 10.789,-9.787 21.997,-19.702 36.375,-32.18 l 9.795,-8.5 -0.62,-6.5 c -0.341,-3.575 -1.073,-21.35 -1.626,-39.5 -1.097,-35.973003 -2.831,-71.672003 -3.514,-72.355003 -0.237,-0.237 -0.662,0.196 -0.944,0.962 M 197.5,124.76047 c -14.85,11.818 -27.96,22.478 -29.133,23.688 -2.039,2.104 -2.159,3.392 -2.694,28.952 -0.428,20.396 -0.277,26.733 0.633,26.68 0.657,-0.038 6.369,-2.626 12.694,-5.75 l 11.5,-5.68 2.896,-8 c 5.358,-14.802 23.258,-59.667 31.021,-77.75 0.885,-2.062 1.266,-3.722 0.846,-3.688 -0.419,0.033 -12.913,9.73 -27.763,21.548 m -50.149,41.14 c -4.965,4.262 -14.347,12.475 -20.848,18.25 a 21186,21186 0 0 1 -20.872,18.512 l -9.05,8.012 -3.761,13.466 c -2.069,7.407 -4.024,14.662 -4.345,16.123 -0.547,2.493 1.543,1.602 33.962,-14.478 l 34.546,-17.135 0.009,-25.25 c 0.004,-13.887 -0.132,-25.25 -0.303,-25.25 -0.172,0 -4.374,3.488 -9.338,7.75 m 133.149,-0.259 c -21.103,6.292 -52.931,18.425 -76.708,29.242 l -7.708,3.507 -2.48,7.63 c -17.597,54.139 -25.439,80.702 -28.591,96.844 -4.822,24.697 -7.356,31.662 -11.315,31.099 -2.139,-0.305 -2.207,-0.731 -2.539,-15.813 -0.342,-15.493 1.209,-49.292 2.866,-62.5 1.211,-9.651 2.426,-38.5 1.621,-38.5 -0.362,0 -16.348,7.848 -35.526,17.44 l -34.868,17.44 -2.259,8.31 c -24.571,90.394 -37.245,148.182 -46.457,211.81 -1.393,9.625 -2.751,18.85 -3.017,20.5 l -0.484,3 2.233,-2.992 c 9.243,-12.389 28.33,-36.667 41.039,-52.201 18.291,-22.356 15.727,-19.181 44.752,-55.405 25.48,-31.799 40.952,-51.865 73.639,-95.508 11.578,-15.459 32.277,-42.234 45.998,-59.5 27.466,-34.564 49.304,-63.947 49.304,-66.339 0,-0.824 -0.763,-0.668 -9.5,1.936 m -105.825,42.535 -9.825,4.885 -0.424,6.795 c -0.233,3.737 -0.893,13.319 -1.466,21.294 -3.886,54.033 -3.969,52.235 1.536,33.413 3.497,-11.954 12.631,-41.107 21.514,-68.663 1.198,-3.717 0.391,-3.555 -11.335,2.276 m -89.703,12.508 c -1.321,1.592 -27.762,24.432 -53.653,46.348 -5.6,4.74 -10.213,8.992 -10.25,9.449 -0.037,0.457 13.062,-5.865 29.111,-14.05 l 29.181,-14.881 3.791,-13.45 c 3.944,-13.994 4.265,-16.362 1.82,-13.416"/>
  </svg>
</svg>
